# xmcd CD database file
#
# Track frame offsets:
#	150
#	16742
#	29797
#	42315
#	69092
#	88385
#	97965
#	111310
#	122952
#	137070
#	150945
#	165032
#
# Disc length: 2366 seconds
#
# Revision: 0
# Processed by: cddbd v1.5.1PL0 Copyright (c) Steve Scherf et al.
# Submitted via: CDex 1.51
#
DISCID=91093c0c
DTITLE=Ray Charles - Los años dorados Volumen 1
DYEAR=1998
DGENRE=Blues
TTITLE0=Georgia On My Mind
TTITLE1=Unchain My Heart
TTITLE2=Yesterday
TTITLE3=I Gotta Woman
TTITLE4=I Can't Stop Loving You
TTITLE5=Yes Indeed
TTITLE6=Crying Time
TTITLE7=Ray Charles Blues
TTITLE8=Kiss Me Baby
TTITLE9=I'm Going Down To The River
TTITLE10=Baby Let Me Hold Your Hand
TTITLE11=Honey Hoyne
EXTD=YEAR: 1998
EXTT0=
EXTT1=
EXTT2=
EXTT3=
EXTT4=
EXTT5=
EXTT6=
EXTT7=
EXTT8=
EXTT9=
EXTT10=
EXTT11=
PLAYORDER=
